<svg width="1000" height="666" viewBox="0 0 1000 666" fill="none" xmlns="http://www.w3.org/2000/svg">
<g opacity="0.2" clip-path="url(#clip0_1_3005)">
<path d="M0 0H45.94L157.76 82.02L500.04 333.02L266.97 634.42L242.57 666H178.35L224.58 618.13L500.03 333.02L876.85 560.94L1000 635.44V666H954.12L842.24 583.98L500.03 333.02L47.42 488.21L0 504.49V547.22L71.88 516.43L500.03 333.02L47.42 177.79L0 161.55V118.78L71.88 149.57L500.03 333.02L655.23 10.12L660.1 0H608.52L607.99 1.7L500.03 333.02L952.58 488.21L1000 504.49V547.22L928.13 516.43L500.03 333.02L952.58 177.79L1000 161.55V118.78L928.13 149.57L500.03 333.02L2.55 261.08L0 260.72V226.37L15.2 229.61L500.03 333.01L733.04 31.58L757.49 0H821.65L775.42 47.87L500.03 333.02L997.51 404.92L1000 405.28V439.63L984.81 436.39L500.03 333.02L123.15 560.94L0 635.44V666H45.94L157.76 583.98L500.04 333.02L0 349.03V316.97L500.03 333.02L524.07 0H475.94L500.04 333.02L1000 316.97V349.03L500.03 333.02L876.85 105.06L1000 30.59V0H954.12L842.25 82.02L500.03 333.02L15.2 436.38L0 439.63V405.28L2.55 404.92L500.03 333.02L655.23 655.88L660.1 666H608.52L607.99 664.34L500.03 333.02L224.58 47.87L178.35 0H242.57L266.96 31.58L500.03 333.02L344.77 655.88L339.9 666H391.48L392.01 664.34L500.03 333.02L775.42 618.13L821.65 666H757.49L733.04 634.42L500.03 333.02L997.51 261.08L1000 260.72V226.37L984.81 229.61L500.03 333.01L123.15 105.06L0 30.59V0ZM339.9 0H391.48L392.01 1.7L500.03 333.02L524.07 666H475.94L500.04 333.02L344.77 10.12L339.9 0Z" fill="url(#paint0_radial_1_3005)"/>
</g>
<defs>
<radialGradient id="paint0_radial_1_3005" cx="0" cy="0" r="1" gradientUnits="userSpaceOnUse" gradientTransform="translate(500.009 333) scale(500.01 333)">
<stop stop-color="white"/>
<stop offset="0.8648" stop-color="white" stop-opacity="0.2216"/>
<stop offset="1" stop-color="white" stop-opacity="0.1"/>
</radialGradient>
<clipPath id="clip0_1_3005">
<rect width="1000" height="666" fill="white"/>
</clipPath>
</defs>
</svg>
