<svg width="30" height="30" viewBox="0 0 30 30" fill="none" xmlns="http://www.w3.org/2000/svg">
<path d="M26.2495 14.5H9.78447L14.267 10.0175C14.7224 9.54604 14.9743 8.91453 14.9687 8.25904C14.963 7.60355 14.7 6.97651 14.2365 6.51299C13.773 6.04947 13.146 5.78655 12.4905 5.78086C11.835 5.77516 11.2035 6.02715 10.732 6.48254L1.98197 15.2325C1.51329 15.7014 1.25 16.3371 1.25 17C1.25 17.663 1.51329 18.2987 1.98197 18.7675L10.732 27.5175C10.9626 27.7563 11.2384 27.9468 11.5435 28.0778C11.8485 28.2088 12.1765 28.2778 12.5085 28.2807C12.8404 28.2836 13.1696 28.2203 13.4769 28.0946C13.7841 27.9689 14.0632 27.7833 14.298 27.5485C14.5327 27.3138 14.7183 27.0347 14.844 26.7274C14.9697 26.4202 15.033 26.091 15.0301 25.759C15.0272 25.4271 14.9582 25.099 14.8272 24.794C14.6962 24.489 14.5057 24.2132 14.267 23.9825L9.78447 19.5H26.2495C26.9125 19.5 27.5484 19.2366 28.0172 18.7678C28.4861 18.299 28.7495 17.6631 28.7495 17C28.7495 16.337 28.4861 15.7011 28.0172 15.2323C27.5484 14.7634 26.9125 14.5 26.2495 14.5Z" fill="#E6A71E"/>
<path d="M26.2495 12.5H9.78447L14.267 8.01748C14.7224 7.54597 14.9743 6.91447 14.9687 6.25898C14.963 5.60348 14.7 4.97645 14.2365 4.51293C13.773 4.04941 13.146 3.78649 12.4905 3.7808C11.835 3.7751 11.2035 4.02708 10.732 4.48248L1.98197 13.2325C1.51329 13.7013 1.25 14.3371 1.25 15C1.25 15.6629 1.51329 16.2987 1.98197 16.7675L10.732 25.5175C10.9626 25.7563 11.2384 25.9467 11.5435 26.0777C11.8485 26.2088 12.1765 26.2777 12.5085 26.2806C12.8404 26.2835 13.1696 26.2202 13.4769 26.0945C13.7841 25.9688 14.0632 25.7832 14.298 25.5485C14.5327 25.3137 14.7183 25.0346 14.844 24.7274C14.9697 24.4201 15.033 24.0909 15.0301 23.759C15.0272 23.427 14.9582 23.099 14.8272 22.794C14.6962 22.489 14.5057 22.2131 14.267 21.9825L9.78447 17.5H26.2495C26.9125 17.5 27.5484 17.2366 28.0172 16.7677C28.4861 16.2989 28.7495 15.663 28.7495 15C28.7495 14.3369 28.4861 13.7011 28.0172 13.2322C27.5484 12.7634 26.9125 12.5 26.2495 12.5Z" fill="#FFD60A"/>
</svg>
