<svg width="50" height="50" viewBox="0 0 50 50" fill="none" xmlns="http://www.w3.org/2000/svg">
<path d="M38.1494 17.1777C40.6963 15.5039 42.3809 12.6221 42.3809 9.35449C42.3809 4.19629 38.1836 0 33.0254 0H16.9746C11.8164 0 7.61914 4.19629 7.61914 9.35449C7.61914 12.6221 9.30371 15.5039 11.8506 17.1777C9.30371 18.8506 7.61914 21.7324 7.61914 25C7.61914 28.2676 9.30371 31.1494 11.8506 32.8232C9.30371 34.4951 7.61914 37.3779 7.61914 40.6455C7.61914 45.8037 11.8389 50 17.0244 50C22.2666 50 26.5322 45.7578 26.5322 40.5439V31.917C28.1943 33.4316 30.4023 34.3545 32.8223 34.3545H33.0254C38.1836 34.3545 42.3809 30.1582 42.3809 25C42.3809 21.7324 40.6963 18.8506 38.1494 17.1777ZM26.5322 3.06445H33.0254C36.4941 3.06445 39.3164 5.88574 39.3164 9.35449C39.3164 12.8232 36.4941 15.6455 33.0254 15.6455H26.5322V3.06445ZM10.6836 9.35449C10.6836 5.88574 13.5059 3.06445 16.9746 3.06445H23.4678V15.6455H16.9746C13.5059 15.6455 10.6836 12.8232 10.6836 9.35449ZM10.6836 25C10.6836 21.5312 13.5059 18.71 16.9746 18.71H23.4678V31.291H16.9346C13.4844 31.2695 10.6836 28.4551 10.6836 25ZM23.4678 40.5439C23.4678 44.0684 20.5771 46.9355 17.0244 46.9355C13.5283 46.9355 10.6836 44.1143 10.6836 40.6455C10.6836 37.1768 13.5059 34.3545 16.9746 34.3545H23.4678V40.5439ZM33.0254 31.291H32.8223C29.3535 31.291 26.5322 28.4688 26.5322 25C26.5322 21.5312 29.3535 18.71 32.8223 18.71H33.0254C36.4941 18.71 39.3164 21.5312 39.3164 25C39.3164 28.4688 36.4941 31.291 33.0254 31.291Z" fill="white"/>
<path d="M16.9736 31.29C16.96 31.29 16.9473 31.29 16.9336 31.291H23.4668V31.29H16.9736Z" fill="white"/>
</svg>
